<svg width="150" height="32" viewBox="0 0 150 32" fill="none" xmlns="http://www.w3.org/2000/svg">
<g clip-path="url(#clip0_1_246)">
<mask id="mask0_1_246" style="mask-type:alpha" maskUnits="userSpaceOnUse" x="40" y="6" width="110" height="21">
<path d="M44.7157 14.3679H45.4691C46.1667 14.3679 46.669 14.1516 46.9759 13.7189L51.5522 7.1461C51.8219 6.79629 52.1102 6.55694 52.4172 6.42806C52.7334 6.28998 53.1241 6.22094 53.5891 6.22094H57.691L51.6638 14.3541C51.2359 14.9156 50.7755 15.3207 50.2825 15.5692C50.636 15.6981 50.9569 15.8776 51.2452 16.1078C51.5336 16.3379 51.8033 16.6371 52.0544 17.0053L58.1933 26.3398H53.9798C53.7101 26.3398 53.4775 26.3214 53.2822 26.2846C53.0962 26.2478 52.9334 26.1925 52.7939 26.1189C52.6544 26.0452 52.5335 25.9578 52.4311 25.8565C52.3288 25.746 52.2312 25.6218 52.1382 25.4837L47.534 18.4828C47.3666 18.2251 47.1527 18.0455 46.8922 17.9443C46.6411 17.8338 46.297 17.7786 45.8598 17.7786H44.7157V26.3398H40V6.22094H44.7157V14.3679Z" fill="black"/>
<path d="M65.7136 26.3398H60.97V6.22094H65.7136V26.3398Z" fill="black"/>
<path d="M88.6506 6.22094V26.3398H86.195C85.8323 26.3398 85.5253 26.2846 85.2742 26.1741C85.0324 26.0544 84.7905 25.8519 84.5487 25.5665L74.9637 13.567C75.001 13.926 75.0242 14.2759 75.0335 14.6165C75.0521 14.9479 75.0614 15.2609 75.0614 15.5554V26.3398H70.9037V6.22094H73.3872C73.5918 6.22094 73.7639 6.23014 73.9034 6.24855C74.0429 6.26696 74.1685 6.30379 74.2801 6.35902C74.3917 6.40505 74.4987 6.47409 74.601 6.56615C74.7033 6.6582 74.8196 6.78248 74.9498 6.93897L84.6185 19.0213C84.572 18.6347 84.5394 18.2619 84.5208 17.9029C84.5022 17.5346 84.4929 17.1894 84.4929 16.8672V6.22094H88.6506Z" fill="black"/>
<path d="M103.629 15.9144H110.856V24.4066C109.815 25.1615 108.703 25.7092 107.522 26.0498C106.35 26.3904 105.122 26.5607 103.839 26.5607C102.164 26.5607 100.639 26.303 99.2623 25.7875C97.895 25.2628 96.7231 24.5447 95.7464 23.6334C94.7698 22.7128 94.0164 21.6265 93.4862 20.3746C92.9561 19.1134 92.691 17.7464 92.691 16.2735C92.691 14.773 92.9421 13.3967 93.4444 12.1448C93.9467 10.8836 94.6628 9.79732 95.593 8.88596C96.5324 7.9746 97.6625 7.26577 98.9833 6.75946C100.313 6.25315 101.797 6 103.434 6C104.28 6 105.076 6.06904 105.82 6.20713C106.564 6.34521 107.248 6.53392 107.871 6.77327C108.503 7.01262 109.08 7.29799 109.601 7.62939C110.122 7.9608 110.587 8.31982 110.996 8.70645L109.629 10.7639C109.415 11.0861 109.136 11.284 108.792 11.3577C108.457 11.4313 108.094 11.3485 107.703 11.1091C107.331 10.8882 106.978 10.6995 106.643 10.543C106.317 10.3773 105.983 10.2438 105.638 10.1425C105.294 10.0413 104.931 9.96762 104.55 9.92159C104.169 9.87557 103.741 9.85255 103.267 9.85255C102.383 9.85255 101.588 10.009 100.881 10.322C100.174 10.6258 99.5693 11.0585 99.067 11.62C98.574 12.1816 98.1927 12.8582 97.9229 13.6499C97.6532 14.4324 97.5183 15.3069 97.5183 16.2735C97.5183 17.3413 97.6672 18.2895 97.9648 19.118C98.2624 19.9465 98.681 20.6461 99.2205 21.2169C99.7692 21.7876 100.42 22.2249 101.174 22.5287C101.936 22.8233 102.778 22.9706 103.699 22.9706C104.266 22.9706 104.778 22.9153 105.234 22.8049C105.699 22.6944 106.15 22.5471 106.587 22.363V19.3113H104.578C104.28 19.3113 104.048 19.2331 103.88 19.0766C103.713 18.9201 103.629 18.7222 103.629 18.4828V15.9144Z" fill="black"/>
<path d="M120.04 9.81113V14.506H126.43V17.9581H120.04V22.7496H128.383V26.3398H115.296V6.22094H128.383V9.81113H120.04Z" fill="black"/>
<path d="M150 26.3398H145.284C144.977 26.3398 144.726 26.2662 144.531 26.1189C144.345 25.9716 144.196 25.7967 144.084 25.5942L140.01 18.5519C139.936 18.7544 139.852 18.9293 139.759 19.0766L135.964 25.5942C135.834 25.7783 135.681 25.9486 135.504 26.1051C135.327 26.2616 135.099 26.3398 134.82 26.3398H130.411L136.955 15.9835L130.663 6.22094H135.378C135.685 6.22094 135.909 6.26236 136.048 6.34521C136.197 6.41886 136.327 6.54773 136.439 6.73185L140.485 13.5118C140.531 13.3921 140.582 13.277 140.638 13.1666C140.703 13.0561 140.773 12.941 140.848 12.8214L144.391 6.80089C144.522 6.59837 144.656 6.45108 144.796 6.35902C144.945 6.26696 145.126 6.22094 145.34 6.22094H149.86L143.484 15.7902L150 26.3398Z" fill="black"/>
</mask>
<g mask="url(#mask0_1_246)">
<path d="M44.7157 14.3679H45.4691C46.1667 14.3679 46.669 14.1516 46.9759 13.7189L51.5522 7.1461C51.8219 6.79629 52.1102 6.55694 52.4172 6.42806C52.7334 6.28998 53.1241 6.22094 53.5891 6.22094H57.691L51.6638 14.3541C51.2359 14.9156 50.7755 15.3207 50.2825 15.5692C50.636 15.6981 50.9569 15.8776 51.2452 16.1078C51.5336 16.3379 51.8033 16.6371 52.0544 17.0053L58.1933 26.3398H53.9798C53.7101 26.3398 53.4775 26.3214 53.2822 26.2846C53.0962 26.2478 52.9334 26.1925 52.7939 26.1189C52.6544 26.0452 52.5335 25.9578 52.4311 25.8565C52.3288 25.746 52.2312 25.6218 52.1382 25.4837L47.534 18.4828C47.3666 18.2251 47.1527 18.0455 46.8922 17.9443C46.6411 17.8338 46.297 17.7786 45.8598 17.7786H44.7157V26.3398H40V6.22094H44.7157V14.3679Z" fill="#252630"/>
<path d="M65.7136 26.3398H60.97V6.22094H65.7136V26.3398Z" fill="#252630"/>
<path d="M88.6506 6.22094V26.3398H86.195C85.8323 26.3398 85.5253 26.2846 85.2742 26.1741C85.0324 26.0544 84.7905 25.8519 84.5487 25.5665L74.9637 13.567C75.001 13.926 75.0242 14.2759 75.0335 14.6165C75.0521 14.9479 75.0614 15.2609 75.0614 15.5554V26.3398H70.9037V6.22094H73.3872C73.5918 6.22094 73.7639 6.23014 73.9034 6.24855C74.0429 6.26696 74.1685 6.30379 74.2801 6.35902C74.3917 6.40505 74.4987 6.47409 74.601 6.56615C74.7033 6.6582 74.8196 6.78248 74.9498 6.93897L84.6185 19.0213C84.572 18.6347 84.5394 18.2619 84.5208 17.9029C84.5022 17.5346 84.4929 17.1894 84.4929 16.8672V6.22094H88.6506Z" fill="#252630"/>
<path d="M103.629 15.9144H110.856V24.4066C109.815 25.1615 108.703 25.7092 107.522 26.0498C106.35 26.3904 105.122 26.5607 103.839 26.5607C102.164 26.5607 100.639 26.303 99.2623 25.7875C97.895 25.2628 96.7231 24.5447 95.7464 23.6334C94.7698 22.7128 94.0164 21.6265 93.4862 20.3746C92.9561 19.1134 92.691 17.7464 92.691 16.2735C92.691 14.773 92.9421 13.3967 93.4444 12.1448C93.9467 10.8836 94.6628 9.79732 95.593 8.88596C96.5324 7.9746 97.6625 7.26577 98.9833 6.75946C100.313 6.25315 101.797 6 103.434 6C104.28 6 105.076 6.06904 105.82 6.20713C106.564 6.34521 107.248 6.53392 107.871 6.77327C108.503 7.01262 109.08 7.29799 109.601 7.62939C110.122 7.9608 110.587 8.31982 110.996 8.70645L109.629 10.7639C109.415 11.0861 109.136 11.284 108.792 11.3577C108.457 11.4313 108.094 11.3485 107.703 11.1091C107.331 10.8882 106.978 10.6995 106.643 10.543C106.317 10.3773 105.983 10.2438 105.638 10.1425C105.294 10.0413 104.931 9.96762 104.55 9.92159C104.169 9.87557 103.741 9.85255 103.267 9.85255C102.383 9.85255 101.588 10.009 100.881 10.322C100.174 10.6258 99.5693 11.0585 99.067 11.62C98.574 12.1816 98.1927 12.8582 97.9229 13.6499C97.6532 14.4324 97.5183 15.3069 97.5183 16.2735C97.5183 17.3413 97.6672 18.2895 97.9648 19.118C98.2624 19.9465 98.681 20.6461 99.2205 21.2169C99.7692 21.7876 100.42 22.2249 101.174 22.5287C101.936 22.8233 102.778 22.9706 103.699 22.9706C104.266 22.9706 104.778 22.9153 105.234 22.8049C105.699 22.6944 106.15 22.5471 106.587 22.363V19.3113H104.578C104.28 19.3113 104.048 19.2331 103.88 19.0766C103.713 18.9201 103.629 18.7222 103.629 18.4828V15.9144Z" fill="#252630"/>
<path d="M120.04 9.81113V14.506H126.43V17.9581H120.04V22.7496H128.383V26.3398H115.296V6.22094H128.383V9.81113H120.04Z" fill="#252630"/>
<path d="M150 26.3398H145.284C144.977 26.3398 144.726 26.2662 144.531 26.1189C144.345 25.9716 144.196 25.7967 144.084 25.5942L140.01 18.5519C139.936 18.7544 139.852 18.9293 139.759 19.0766L135.964 25.5942C135.834 25.7783 135.681 25.9486 135.504 26.1051C135.327 26.2616 135.099 26.3398 134.82 26.3398H130.411L136.955 15.9835L130.663 6.22094H135.378C135.685 6.22094 135.909 6.26236 136.048 6.34521C136.197 6.41886 136.327 6.54773 136.439 6.73185L140.485 13.5118C140.531 13.3921 140.582 13.277 140.638 13.1666C140.703 13.0561 140.773 12.941 140.848 12.8214L144.391 6.80089C144.522 6.59837 144.656 6.45108 144.796 6.35902C144.945 6.26696 145.126 6.22094 145.34 6.22094H149.86L143.484 15.7902L150 26.3398Z" fill="#252630"/>
</g>
</g>
<g clip-path="url(#clip1_1_246)">
<mask id="mask1_1_246" style="mask-type:alpha" maskUnits="userSpaceOnUse" x="40" y="6" width="110" height="21">
<path d="M44.7157 14.3679H45.4691C46.1667 14.3679 46.669 14.1515 46.9759 13.7189L51.5522 7.14604C51.8219 6.79622 52.1102 6.55688 52.4172 6.428C52.7334 6.28992 53.1241 6.22087 53.5891 6.22087H57.691L51.6638 14.354C51.2359 14.9156 50.7755 15.3206 50.2825 15.5692C50.636 15.6981 50.9569 15.8776 51.2452 16.1077C51.5336 16.3378 51.8033 16.637 52.0544 17.0052L58.1933 26.3397H53.9798C53.7101 26.3397 53.4775 26.3213 53.2822 26.2845C53.0962 26.2477 52.9334 26.1924 52.7939 26.1188C52.6544 26.0451 52.5335 25.9577 52.4311 25.8564C52.3288 25.7459 52.2312 25.6217 52.1382 25.4836L47.534 18.4827C47.3666 18.225 47.1527 18.0454 46.8922 17.9442C46.6411 17.8337 46.297 17.7785 45.8598 17.7785H44.7157V26.3397H40V6.22087H44.7157V14.3679Z" fill="black"/>
<path d="M65.7136 26.3397H60.97V6.22087H65.7136V26.3397Z" fill="black"/>
<path d="M88.6506 6.22087V26.3397H86.195C85.8323 26.3397 85.5253 26.2845 85.2742 26.174C85.0324 26.0543 84.7905 25.8518 84.5487 25.5664L74.9637 13.567C75.001 13.926 75.0242 14.2758 75.0335 14.6164C75.0521 14.9478 75.0614 15.2608 75.0614 15.5554V26.3397H70.9037V6.22087H73.3872C73.5918 6.22087 73.7639 6.23008 73.9034 6.24849C74.0429 6.2669 74.1685 6.30372 74.2801 6.35896C74.3917 6.40499 74.4987 6.47403 74.601 6.56609C74.7033 6.65814 74.8196 6.78242 74.9498 6.93891L84.6185 19.0212C84.572 18.6346 84.5394 18.2618 84.5208 17.9028C84.5022 17.5345 84.4929 17.1893 84.4929 16.8671V6.22087H88.6506Z" fill="black"/>
<path d="M103.629 15.9144H110.856V24.4065C109.815 25.1614 108.703 25.7091 107.522 26.0497C106.35 26.3903 105.122 26.5606 103.839 26.5606C102.164 26.5606 100.639 26.3029 99.2623 25.7874C97.895 25.2627 96.7231 24.5446 95.7464 23.6333C94.7698 22.7127 94.0164 21.6264 93.4862 20.3745C92.9561 19.1133 92.691 17.7463 92.691 16.2734C92.691 14.7729 92.9421 13.3966 93.4444 12.1447C93.9467 10.8835 94.6628 9.79726 95.593 8.8859C96.5324 7.97454 97.6625 7.26571 98.9833 6.7594C100.313 6.25309 101.797 5.99994 103.434 5.99994C104.28 5.99994 105.076 6.06898 105.82 6.20706C106.564 6.34515 107.248 6.53386 107.871 6.77321C108.503 7.01256 109.08 7.29793 109.601 7.62933C110.122 7.96074 110.587 8.31976 110.996 8.70639L109.629 10.7638C109.415 11.086 109.136 11.284 108.792 11.3576C108.457 11.4312 108.094 11.3484 107.703 11.1091C107.331 10.8881 106.978 10.6994 106.643 10.5429C106.317 10.3772 105.983 10.2437 105.638 10.1425C105.294 10.0412 104.931 9.96756 104.55 9.92153C104.169 9.87551 103.741 9.85249 103.267 9.85249C102.383 9.85249 101.588 10.009 100.881 10.322C100.174 10.6258 99.5693 11.0584 99.067 11.62C98.574 12.1815 98.1927 12.8581 97.9229 13.6498C97.6532 14.4323 97.5183 15.3068 97.5183 16.2734C97.5183 17.3412 97.6672 18.2894 97.9648 19.1179C98.2624 19.9464 98.681 20.646 99.2205 21.2168C99.7692 21.7875 100.42 22.2248 101.174 22.5286C101.936 22.8232 102.778 22.9705 103.699 22.9705C104.266 22.9705 104.778 22.9152 105.234 22.8048C105.699 22.6943 106.15 22.547 106.587 22.3629V19.3112H104.578C104.28 19.3112 104.048 19.233 103.88 19.0765C103.713 18.92 103.629 18.7221 103.629 18.4827V15.9144Z" fill="black"/>
<path d="M120.04 9.81107V14.5059H126.43V17.958H120.04V22.7495H128.383V26.3397H115.296V6.22087H128.383V9.81107H120.04Z" fill="black"/>
<path d="M150 26.3397H145.284C144.977 26.3397 144.726 26.2661 144.531 26.1188C144.345 25.9715 144.196 25.7966 144.084 25.5941L140.01 18.5518C139.936 18.7543 139.852 18.9292 139.759 19.0765L135.964 25.5941C135.834 25.7782 135.681 25.9485 135.504 26.105C135.327 26.2615 135.099 26.3397 134.82 26.3397H130.411L136.955 15.9834L130.663 6.22087H135.378C135.685 6.22087 135.909 6.2623 136.048 6.34515C136.197 6.41879 136.327 6.54767 136.439 6.73179L140.485 13.5117C140.531 13.392 140.582 13.277 140.638 13.1665C140.703 13.0561 140.773 12.941 140.848 12.8213L144.391 6.80083C144.522 6.5983 144.656 6.45101 144.796 6.35896C144.945 6.2669 145.126 6.22087 145.34 6.22087H149.86L143.484 15.7901L150 26.3397Z" fill="black"/>
</mask>
<g mask="url(#mask1_1_246)">
<path d="M44.7157 14.3679H45.4691C46.1667 14.3679 46.669 14.1515 46.9759 13.7189L51.5522 7.14604C51.8219 6.79622 52.1102 6.55688 52.4172 6.428C52.7334 6.28992 53.1241 6.22087 53.5891 6.22087H57.691L51.6638 14.354C51.2359 14.9156 50.7755 15.3206 50.2825 15.5692C50.636 15.6981 50.9569 15.8776 51.2452 16.1077C51.5336 16.3378 51.8033 16.637 52.0544 17.0052L58.1933 26.3397H53.9798C53.7101 26.3397 53.4775 26.3213 53.2822 26.2845C53.0962 26.2477 52.9334 26.1924 52.7939 26.1188C52.6544 26.0451 52.5335 25.9577 52.4311 25.8564C52.3288 25.7459 52.2312 25.6217 52.1382 25.4836L47.534 18.4827C47.3666 18.225 47.1527 18.0454 46.8922 17.9442C46.6411 17.8337 46.297 17.7785 45.8598 17.7785H44.7157V26.3397H40V6.22087H44.7157V14.3679Z" fill="#252630"/>
<path d="M65.7136 26.3397H60.97V6.22087H65.7136V26.3397Z" fill="#252630"/>
<path d="M88.6506 6.22087V26.3397H86.195C85.8323 26.3397 85.5253 26.2845 85.2742 26.174C85.0324 26.0543 84.7905 25.8518 84.5487 25.5664L74.9637 13.567C75.001 13.926 75.0242 14.2758 75.0335 14.6164C75.0521 14.9478 75.0614 15.2608 75.0614 15.5554V26.3397H70.9037V6.22087H73.3872C73.5918 6.22087 73.7639 6.23008 73.9034 6.24849C74.0429 6.2669 74.1685 6.30372 74.2801 6.35896C74.3917 6.40499 74.4987 6.47403 74.601 6.56609C74.7033 6.65814 74.8196 6.78242 74.9498 6.93891L84.6185 19.0212C84.572 18.6346 84.5394 18.2618 84.5208 17.9028C84.5022 17.5345 84.4929 17.1893 84.4929 16.8671V6.22087H88.6506Z" fill="#252630"/>
<path d="M103.629 15.9144H110.856V24.4065C109.815 25.1614 108.703 25.7091 107.522 26.0497C106.35 26.3903 105.122 26.5606 103.839 26.5606C102.164 26.5606 100.639 26.3029 99.2623 25.7874C97.895 25.2627 96.7231 24.5446 95.7464 23.6333C94.7698 22.7127 94.0164 21.6264 93.4862 20.3745C92.9561 19.1133 92.691 17.7463 92.691 16.2734C92.691 14.7729 92.9421 13.3966 93.4444 12.1447C93.9467 10.8835 94.6628 9.79726 95.593 8.8859C96.5324 7.97454 97.6625 7.26571 98.9833 6.7594C100.313 6.25309 101.797 5.99994 103.434 5.99994C104.28 5.99994 105.076 6.06898 105.82 6.20706C106.564 6.34515 107.248 6.53386 107.871 6.77321C108.503 7.01256 109.08 7.29793 109.601 7.62933C110.122 7.96074 110.587 8.31976 110.996 8.70639L109.629 10.7638C109.415 11.086 109.136 11.284 108.792 11.3576C108.457 11.4312 108.094 11.3484 107.703 11.1091C107.331 10.8881 106.978 10.6994 106.643 10.5429C106.317 10.3772 105.983 10.2437 105.638 10.1425C105.294 10.0412 104.931 9.96756 104.55 9.92153C104.169 9.87551 103.741 9.85249 103.267 9.85249C102.383 9.85249 101.588 10.009 100.881 10.322C100.174 10.6258 99.5693 11.0584 99.067 11.62C98.574 12.1815 98.1927 12.8581 97.9229 13.6498C97.6532 14.4323 97.5183 15.3068 97.5183 16.2734C97.5183 17.3412 97.6672 18.2894 97.9648 19.1179C98.2624 19.9464 98.681 20.646 99.2205 21.2168C99.7692 21.7875 100.42 22.2248 101.174 22.5286C101.936 22.8232 102.778 22.9705 103.699 22.9705C104.266 22.9705 104.778 22.9152 105.234 22.8048C105.699 22.6943 106.15 22.547 106.587 22.3629V19.3112H104.578C104.28 19.3112 104.048 19.233 103.88 19.0765C103.713 18.92 103.629 18.7221 103.629 18.4827V15.9144Z" fill="#252630"/>
<path d="M120.04 9.81107V14.5059H126.43V17.958H120.04V22.7495H128.383V26.3397H115.296V6.22087H128.383V9.81107H120.04Z" fill="#252630"/>
<path d="M150 26.3397H145.284C144.977 26.3397 144.726 26.2661 144.531 26.1188C144.345 25.9715 144.196 25.7966 144.084 25.5941L140.01 18.5518C139.936 18.7543 139.852 18.9292 139.759 19.0765L135.964 25.5941C135.834 25.7782 135.681 25.9485 135.504 26.105C135.327 26.2615 135.099 26.3397 134.82 26.3397H130.411L136.955 15.9834L130.663 6.22087H135.378C135.685 6.22087 135.909 6.2623 136.048 6.34515C136.197 6.41879 136.327 6.54767 136.439 6.73179L140.485 13.5117C140.531 13.392 140.582 13.277 140.638 13.1665C140.703 13.0561 140.773 12.941 140.848 12.8213L144.391 6.80083C144.522 6.5983 144.656 6.45101 144.796 6.35896C144.945 6.2669 145.126 6.22087 145.34 6.22087H149.86L143.484 15.7901L150 26.3397Z" fill="#252630"/>
</g>
</g>
<rect width="32" height="32" rx="6.85714" fill="url(#paint0_linear_1_246)"/>
<path d="M15.8594 20.6826C19.8841 20.6826 23.1475 21.1373 23.1484 21.6982L23.1387 21.751C22.9426 22.2876 19.7583 22.7148 15.8594 22.7148L15.1143 22.709C11.4393 22.6569 8.57136 22.2242 8.57129 21.6982C8.57225 21.1373 11.8349 20.6827 15.8594 20.6826ZM15.8594 21.3027C13.8665 21.3028 12.0746 21.416 10.792 21.5947C10.559 21.6272 10.346 21.6629 10.1543 21.6982C10.3461 21.7336 10.559 21.7693 10.792 21.8018C12.0746 21.9805 13.8665 22.0937 15.8594 22.0938C17.8525 22.0938 19.6451 21.9805 20.9277 21.8018C21.1605 21.7693 21.3729 21.7336 21.5645 21.6982C21.3729 21.6629 21.1604 21.6272 20.9277 21.5947C19.6451 21.416 17.8525 21.3027 15.8594 21.3027ZM15.79 9C16.4069 9 16.9072 9.50029 16.9072 10.1172C16.9071 10.6329 16.5572 11.065 16.082 11.1934C16.7887 14.6902 18.1186 16.1108 18.707 16.3848C19.5754 15.6535 20.3337 14.2342 20.6748 13.4648C20.358 13.3352 20.1348 13.0246 20.1348 12.6611C20.1349 12.1815 20.5233 11.7931 21.0029 11.793C21.4827 11.793 21.872 12.1814 21.8721 12.6611C21.8721 13.1409 21.4827 13.5303 21.0029 13.5303L21.001 13.5293C20.8865 14.7682 21.4381 16.3582 21.748 17.0361C22.8572 16.843 24.8154 14.584 25.7324 13.3838C25.5331 13.1821 25.4093 12.9056 25.4092 12.5996C25.4092 11.9827 25.9095 11.4824 26.5264 11.4824C27.1432 11.4825 27.6436 11.9828 27.6436 12.5996C27.6434 13.2163 27.1431 13.7157 26.5264 13.7158C26.3734 13.7158 26.2275 13.6855 26.0947 13.6299L23.4287 20.1426C16.5717 18.714 10.722 19.5389 8.12598 20.2939L5.4668 13.6592C5.35672 13.6955 5.23943 13.7158 5.11719 13.7158C4.5004 13.7158 4.00019 13.2164 4 12.5996C4 11.9827 4.50029 11.4824 5.11719 11.4824C5.73399 11.4825 6.23438 11.9828 6.23438 12.5996C6.23427 12.9269 6.09153 13.2196 5.86719 13.4238C6.90489 15.5431 8.87001 16.7123 9.74023 17.0361C10.2807 16.0226 10.4686 14.4046 10.5068 13.5264C10.0603 13.4902 9.70898 13.117 9.70898 12.6611C9.7091 12.1814 10.0984 11.793 10.5781 11.793C11.0577 11.7931 11.4462 12.1815 11.4463 12.6611C11.4463 13.0338 11.2114 13.3502 10.8818 13.4736C11.6614 15.1879 12.609 16.1254 12.998 16.3848C14.1067 15.63 15.1501 12.7596 15.5977 11.2158C15.0728 11.1244 14.6739 10.6682 14.6738 10.1172C14.6738 9.50043 15.1733 9.00024 15.79 9Z" fill="white"/>
<defs>
<linearGradient id="paint0_linear_1_246" x1="0" y1="0" x2="30.5" y2="32" gradientUnits="userSpaceOnUse">
<stop stop-color="#252630"/>
<stop offset="0.783654" stop-color="#565870"/>
</linearGradient>
<clipPath id="clip0_1_246">
<rect width="110" height="21" fill="white" transform="translate(40 6)"/>
</clipPath>
<clipPath id="clip1_1_246">
<rect width="110" height="21" fill="white" transform="translate(40 5.99994)"/>
</clipPath>
</defs>
</svg>
